# xmcd
# 
# Track frame offsets:
#     182
#     13755
#     15820
#     31725
#     32692
#     57440
#     59115
#     83945
#     96082
#     109435
#     113272
#     130020
#     154700
#     170152
#     183182
#     201337
#     213597
#     235287
# 
# Disc length: 3437
# 
# Revision: 17
# Processed by: cddbd v1.5.2PL0 Copyright (c) Steve Scherf et al.
# Submitted via: fre:ac v1.0.27
# 
DISCID=ee0d6b12
DTITLE=The Jimi Hendrix Experience - BBC Sessions
DYEAR=1998
DGENRE=Rock
TTITLE0=Foxy Lady
TTITLE1=Alexis Korner Introduction
TTITLE2=Can You Please Crawl Out Your Window?
TTITLE3=Rhythm And Blues World Service
TTITLE4=(I'm Your) Hoochie Coochie Man
TTITLE5=Traveling With The Experience
TTITLE6=Driving South
TTITLE7=Fire
TTITLE8=Little Miss Lover
TTITLE9=Introducing The Experience
TTITLE10=The Burning Of The Midnight Lamp
TTITLE11=Catfish Blues
TTITLE12=Stone Free
TTITLE13=Love Or Confusion
TTITLE14=Hey Joe
TTITLE15=Hound Dog
TTITLE16=Driving South
TTITLE17=Hear My Train A Comin'
EXTD=
EXTT0=
EXTT1=
EXTT2=
EXTT3=
EXTT4=
EXTT5=
EXTT6=
EXTT7=
EXTT8=
EXTT9=
EXTT10=
EXTT11=
EXTT12=
EXTT13=
EXTT14=
EXTT15=
EXTT16=
EXTT17=
PLAYORDER=
